<svg xmlns="http://www.w3.org/2000/svg" width="187.826" height="48.368" viewBox="0 0 187.826 48.368">
  <g id="Group_64718" data-name="Group 64718" transform="translate(-984.112 -313.028)">
    <rect id="Rectangle_2" data-name="Rectangle 2" width="187.826" height="48.368" transform="translate(984.112 313.028)" fill="#001146"/>
    <g id="FLEET_INSIGHT" data-name="FLEET INSIGHT" transform="translate(1000.112 329.028)">
      <path id="FLEET_INSIGHT-2" data-name="FLEET INSIGHT" d="M3.7,9.63h7.26V8.178H3.7v-5.3h7.81V1.424H2.112V17H3.7ZM15.928,1.424H14.344V17h8.844V15.548h-7.26Zm11,8.206h7.546V8.178H26.928v-5.3H35V1.424H25.344V17h9.922V15.548H26.928Zm13.046,0H47.52V8.178H39.974v-5.3h8.074V1.424H38.39V17h9.922V15.548H39.974ZM56.43,2.876h5.214V1.424H49.632V2.876h5.214V17H56.43ZM69.608,17H73.04V1.424H69.608Zm6.556,0H79.6V5.912h.044L86.438,17h4.488V1.424H87.494V12.248H87.45L80.828,1.424H76.164ZM104.148,2.656a7.042,7.042,0,0,0-4.774-1.628c-3.058,0-5.94,1.738-5.94,5.06,0,5.192,7.3,3.652,7.3,6.512,0,1.1-1.254,1.628-2.376,1.628a3.816,3.816,0,0,1-2.992-1.474l-2.442,2.684A7.4,7.4,0,0,0,98.164,17.4c3.212,0,6.006-1.65,6.006-5.126C104.17,6.814,97,8.64,97,5.8,97,4.636,98.34,4.2,99.308,4.2a3.323,3.323,0,0,1,2.486,1.034ZM106.678,17h3.432V1.424h-3.432Zm20.658-9.24h-6.094v3.168h2.794v2.53a6.718,6.718,0,0,1-3.234.77,4.7,4.7,0,0,1-4.84-5.016A4.7,4.7,0,0,1,120.8,4.2a4.792,4.792,0,0,1,3.784,1.474l2.42-2.64a8.833,8.833,0,0,0-6.2-2c-4.862,0-8.4,3.19-8.4,8.184s3.542,8.184,8.4,8.184a13.966,13.966,0,0,0,6.534-1.5ZM130.35,17h3.432V10.268h6.666V17h3.432V1.424h-3.432V7.232h-6.666V1.424H130.35Zm19.712,0h3.432V4.46h4.444V1.424h-12.32V4.46h4.444Z" transform="translate(-2.112 -1.028)" fill="#f4f8fb"/>
    </g>
  </g>
</svg>
