<svg id="ic-bars" xmlns="http://www.w3.org/2000/svg" width="16" height="16" viewBox="0 0 16 16">
  <path id="Path_37358" data-name="Path 37358" d="M13.625-22A.375.375,0,0,0,14-22.375v-1a.375.375,0,0,0-.375-.375H.375A.375.375,0,0,0,0-23.375v1A.375.375,0,0,0,.375-22Zm0,5A.375.375,0,0,0,14-17.375v-1a.375.375,0,0,0-.375-.375H.375A.375.375,0,0,0,0-18.375v1A.375.375,0,0,0,.375-17Zm0,5A.375.375,0,0,0,14-12.375v-1a.375.375,0,0,0-.375-.375H.375A.375.375,0,0,0,0-13.375v1A.375.375,0,0,0,.375-12Z" transform="translate(1 25.875)" fill="currentColor"/>
  <g id="ic_bounding_box">
    <rect id="ic_bounding_box-2" data-name="ic_bounding_box" width="16" height="16" fill="#FFFFFF"/>
  </g>
</svg>
