<svg id="ic-external-link" xmlns="http://www.w3.org/2000/svg" width="24" height="16" viewBox="0 0 24 16">
  <path id="Path_37372" data-name="Path 37372" d="M18-27.55a.45.45,0,0,0-.45-.45l-5.1.005a.45.45,0,0,0-.45.45V-26.5a.45.45,0,0,0,.459.45l2.3-.085.064.064L6.11-17.36a.375.375,0,0,0,0,.53l.72.72a.375.375,0,0,0,.53,0l8.714-8.715.064.064-.085,2.3A.45.45,0,0,0,16.5-22h1.041a.45.45,0,0,0,.45-.45ZM13.36-20.7l-.75.75a.431.431,0,0,0-.11.265v5.993a.188.188,0,0,1-.187.188H1.687a.188.188,0,0,1-.187-.187V-24.312a.188.188,0,0,1,.187-.187h9.437a.375.375,0,0,0,.265-.64l-.75-.75a.431.431,0,0,0-.265-.11H1.5A1.5,1.5,0,0,0,0-24.5v11A1.5,1.5,0,0,0,1.5-12h11A1.5,1.5,0,0,0,14-13.5v-6.93A.375.375,0,0,0,13.36-20.7Z" transform="translate(3 28)" fill="#FFFFFF"/>
  <g id="ic_bounding_box">
    <rect id="ic_bounding_box-2" data-name="ic_bounding_box" width="24" height="16" fill="none"/>
  </g>
</svg>
