<svg id="ic-file-invoice-dollar" xmlns="http://www.w3.org/2000/svg" width="16" height="16" viewBox="0 0 16 16">
  <path id="Path_37339" data-name="Path 37339" d="M11.557-24.938,8.936-27.559A1.5,1.5,0,0,0,7.877-28H1.5A1.5,1.5,0,0,0,0-26.5v13A1.5,1.5,0,0,0,1.5-12h9A1.5,1.5,0,0,0,12-13.5V-23.876A1.509,1.509,0,0,0,11.557-24.938ZM8-26.375,10.376-24H8ZM10.5-13.5h-9v-13h5v3.249a.748.748,0,0,0,.75.75H10.5Zm-4-7.75a.25.25,0,0,0-.25-.25h-.5a.25.25,0,0,0-.25.25v.754a1.392,1.392,0,0,0-1.333,1.408,1.414,1.414,0,0,0,.987,1.356l1.406.422a.408.408,0,0,1,.274.4.393.393,0,0,1-.369.412H5.587a.749.749,0,0,1-.4-.116.256.256,0,0,0-.317.023l-.367.35a.25.25,0,0,0,.018.379,1.789,1.789,0,0,0,.98.355v.759a.25.25,0,0,0,.25.25h.5a.25.25,0,0,0,.25-.25V-15.5a1.391,1.391,0,0,0,1.333-1.408,1.414,1.414,0,0,0-.987-1.356L5.441-18.69a.408.408,0,0,1-.274-.4.393.393,0,0,1,.369-.412h.878a.749.749,0,0,1,.4.116.257.257,0,0,0,.317-.023l.367-.35a.25.25,0,0,0-.018-.379,1.789,1.789,0,0,0-.98-.355ZM2.75-24.5h2.5a.25.25,0,0,0,.25-.25v-.5a.25.25,0,0,0-.25-.25H2.75a.25.25,0,0,0-.25.25v.5A.25.25,0,0,0,2.75-24.5ZM5.5-22.75v-.5a.25.25,0,0,0-.25-.25H2.75a.25.25,0,0,0-.25.25v.5a.25.25,0,0,0,.25.25h2.5A.25.25,0,0,0,5.5-22.75Z" transform="translate(2 28)" fill="#FFFFFF"/>
  <g id="ic_bounding_box">
    <rect id="ic_bounding_box-2" data-name="ic_bounding_box" width="16" height="16" fill="none"/>
  </g>
</svg>
