<?xml version="1.0" encoding="utf-8"?>
<!-- Generator: Adobe Illustrator 25.4.1, SVG Export Plug-In . SVG Version: 6.00 Build 0)  -->
<svg version="1.1" id="ic-home" xmlns="http://www.w3.org/2000/svg" xmlns:xlink="http://www.w3.org/1999/xlink" x="0px" y="0px"
	 viewBox="0 0 24 16" style="enable-background:new 0 0 24 16;" xml:space="preserve">
<style type="text/css">
	.st0{fill:#FFFFFF;}
	.st1{fill:none;}
</style>
<path id="Path_37366" class="st0" d="M20.8,7.7L19,6.2v-3C19,3.1,18.9,3,18.7,3h-1c-0.1,0-0.2,0.1-0.2,0.2V5l-4.4-3.6
	C12.8,1.2,12.4,1,12,1c-0.4,0-0.8,0.2-1.1,0.4L3.2,7.7C3.1,7.8,3,8,3,8.1c0,0.1,0,0.2,0.1,0.3l0.3,0.4C3.5,8.9,3.7,9,3.8,9
	C3.9,9,4,9,4.1,8.9L5,8.2V14c0,0.6,0.4,1,1,1h4c0.6,0,1-0.4,1-1v-3.2h2V14c0,0.6,0.4,1,1,1h4c0.5,0,1-0.4,1-1V8.2l0.9,0.7
	C20,9,20.1,9,20.2,9c0.1,0,0.3-0.1,0.4-0.2l0.3-0.4C21,8.3,21,8.2,21,8.1C21,8,20.9,7.8,20.8,7.7z M17.5,13.5h-3v-3.2
	c0-0.6-0.4-1-1-1h-3c-0.6,0-1,0.4-1,1v3.2h-3V6.9L12,2.4l5.5,4.5V13.5z"/>
<g id="ic_bounding_box">
	<rect id="ic_bounding_box-2" class="st1" width="24" height="16"/>
</g>
</svg>
