<svg id="ic-service-truck-custom" xmlns="http://www.w3.org/2000/svg" width="24" height="16" viewBox="0 0 24 16">
  <g id="Final_Icon" data-name="Final Icon" transform="translate(2 1.15)">
    <path id="Path_3" data-name="Path 3" d="M19.414,4.94,17.587,3.079a1.981,1.981,0,0,0-1.414-.595H14.5a1,1,0,0,0-.709.3A1.014,1.014,0,0,0,13.5,3.5v2L5.074.036a.251.251,0,0,0-.347.076l-.535.85a.234.234,0,0,0-.03.082.258.258,0,0,0,.029.221l.536.785V5.53c-.055.659-.287.794-.955.794-.706,0-.974-.193-.974-.9,0-.383-.209-.514-.474-.514a.484.484,0,0,0-.527.514A1.726,1.726,0,0,0,3.752,7.336,1.827,1.827,0,0,0,5.734,5.564l.006-2.032L9.538,9.1H5.482a2.522,2.522,0,0,0-3.5,0H.253A.253.253,0,0,0,0,9.353v1.01a.253.253,0,0,0,.253.252H1.22a2.535,2.535,0,1,0,5.046.332,2.6,2.6,0,0,0-.022-.327l7.81.015a2.608,2.608,0,0,0,.088,1.349,2.476,2.476,0,0,0,3.9,1.162A2.532,2.532,0,0,0,19,11.142a2.769,2.769,0,0,0-.05-.51H19.5a.5.5,0,0,0,.5-.505V6.379a2.049,2.049,0,0,0-.586-1.438Zm-14.7,6a1.013,1.013,0,1,1-1.972-.328h0a1.01,1.01,0,0,1,1.917,0h0A1.038,1.038,0,0,1,4.715,10.94ZM11.354,9.1,7.439,3.362,13.5,7.292V9.1ZM15,4.008h1.171a.488.488,0,0,1,.352.15l1.353,1.377H15Zm1.5,8.146a1.012,1.012,0,0,1-.945-.62,1.023,1.023,0,0,1,.211-1.114,1.008,1.008,0,0,1,1.1-.227,1.019,1.019,0,0,1-.372,1.96Zm2-3.055h-.512a2.429,2.429,0,0,0-2.973,0H15V6.553h3.5Z" transform="translate(0 0.004)" fill="#FFFFFF"/>
  </g>
  <g id="ic_bounding_box">
    <rect id="ic_bounding_box-2" data-name="ic_bounding_box" width="24" height="16" fill="none"/>
  </g>
</svg>
