<svg id="ic-truck-container" xmlns="http://www.w3.org/2000/svg" width="24" height="16" viewBox="0 0 24 16">
  <path id="Path_37337" data-name="Path 37337" d="M1-17.5H11.5a1,1,0,0,0,1-1V-25a1,1,0,0,0-1-1H1a1,1,0,0,0-1,1v6.5A1,1,0,0,0,1-17.5Zm.5-7H11V-19H1.5Zm17.916,3.916-1.828-1.828A2,2,0,0,0,16.172-23H14.5a1,1,0,0,0-1,1v5.5H1a1,1,0,0,0-1,1v.869a2.593,2.593,0,0,0,2.159,2.609A2.492,2.492,0,0,0,4.5-13.009a2.5,2.5,0,0,0,2.666.928,2.475,2.475,0,0,0,1.7-1.588,2.589,2.589,0,0,0,.087-1.325h5.1a2.523,2.523,0,0,0,.087,1.325,2.469,2.469,0,0,0,1.737,1.6A2.505,2.505,0,0,0,19-14.5a2.634,2.634,0,0,0-.05-.5H19.5a.5.5,0,0,0,.5-.5v-3.675A1.993,1.993,0,0,0,19.416-20.584ZM2.5-13.5a1,1,0,0,1-1-1,1,1,0,0,1,1-1,1,1,0,0,1,1,1A1,1,0,0,1,2.5-13.5Zm4,0a1,1,0,0,1-1-1,1,1,0,0,1,1-1,1,1,0,0,1,1,1A1,1,0,0,1,6.5-13.5Zm8.5-8h1.172a.5.5,0,0,1,.353.147L17.878-20H15Zm1.5,8a1,1,0,0,1-1-1,1,1,0,0,1,1-1,1,1,0,0,1,1,1A1,1,0,0,1,16.5-13.5Zm2-3h-.513A2.484,2.484,0,0,0,16.5-17a2.491,2.491,0,0,0-1.487.5H15V-19h3.5Zm-14.25-7h-1a.251.251,0,0,0-.25.25v3a.251.251,0,0,0,.25.25h1a.251.251,0,0,0,.25-.25v-3A.251.251,0,0,0,4.25-23.5Zm5,0h-1a.251.251,0,0,0-.25.25v3a.251.251,0,0,0,.25.25h1a.251.251,0,0,0,.25-.25v-3A.251.251,0,0,0,9.25-23.5Zm-2.5,0h-1a.251.251,0,0,0-.25.25v3a.251.251,0,0,0,.25.25h1A.251.251,0,0,0,7-20.25v-3A.251.251,0,0,0,6.75-23.5Z" transform="translate(2 27)" fill="#FFFFFF"/>
  <g id="ic_bounding_box">
    <rect id="ic_bounding_box-2" data-name="ic_bounding_box" width="24" height="16" fill="none"/>
  </g>
</svg>
