<svg id="ic-wrench" xmlns="http://www.w3.org/2000/svg" width="16" height="16" viewBox="0 0 16 16">
  <path id="Path_37365" data-name="Path 37365" d="M15.859-24.338a1.089,1.089,0,0,0-.766-.786,1.092,1.092,0,0,0-1.062.28L12.2-23.011l-1.014-.169-.168-1.013,1.833-1.833a1.093,1.093,0,0,0,.278-1.062,1.094,1.094,0,0,0-.79-.767,4.794,4.794,0,0,0-4.579,1.272,4.787,4.787,0,0,0-1.273,4.477L.751-16.373A2.541,2.541,0,0,0,0-14.562,2.542,2.542,0,0,0,.751-12.75,2.544,2.544,0,0,0,2.563-12a2.549,2.549,0,0,0,1.812-.75L10.1-18.477a4.8,4.8,0,0,0,4.484-1.279A4.855,4.855,0,0,0,15.859-24.338Zm-2.332,3.522a3.31,3.31,0,0,1-3.407.788l-.439-.147L3.314-13.81a1.089,1.089,0,0,1-1.5,0,1.053,1.053,0,0,1-.312-.751,1.053,1.053,0,0,1,.312-.751l6.37-6.368-.145-.438a3.315,3.315,0,0,1,.782-3.4,3.307,3.307,0,0,1,2.345-.976H11.2L9.408-24.708l.473,2.831,2.83.472L14.5-23.2A3.3,3.3,0,0,1,13.527-20.816ZM2.75-15.249a.5.5,0,0,0-.5.5.5.5,0,0,0,.5.5.5.5,0,0,0,.5-.5A.5.5,0,0,0,2.75-15.249Z" transform="translate(0 28)" fill="#FFFFFF"/>
  <g id="ic_bounding_box">
    <rect id="ic_bounding_box-2" data-name="ic_bounding_box" width="16" height="16" fill="none"/>
  </g>
</svg>
