<svg xmlns="http://www.w3.org/2000/svg" xmlns:xlink="http://www.w3.org/1999/xlink" width="48" height="48" viewBox="0 0 48 48">
  <defs>
    <clipPath id="clip-Ic_na">
      <rect width="48" height="48"/>
    </clipPath>
  </defs>
  <g id="Ic_na" clip-path="url(#clip-Ic_na)">
    <rect width="48" height="48" fill="#fff"/>
    <g id="Group_1121" data-name="Group 1121">
      <g id="ic_n_a" data-name="ic_n/a" transform="translate(2.5 2.5)">
        <path id="Path_4928" data-name="Path 4928" d="M28.556,23.114h3.035l.287.74H28.306Z" transform="translate(0)" fill="#b2b2b2"/>
        <g id="circle" transform="translate(0.002 -0.001)">
          <path id="Path_1214" data-name="Path 1214" d="M21.5,79.3A21.5,21.5,0,1,0,43,100.8,21.5,21.5,0,0,0,21.5,79.3Zm0,38.4a16.9,16.9,0,1,1,16.9-16.9,16.9,16.9,0,0,1-16.9,16.9Z" transform="translate(0 -79.299)" fill="#d1d1d1"/>
          <path id="Subtraction_8" data-name="Subtraction 8" d="M-400.5-454.375h0a16.8,16.8,0,0,1-11.96-4.951,16.791,16.791,0,0,1-4.951-11.953c0-.163,0-.331.007-.5a16.805,16.805,0,0,0,5.109,11.616,16.817,16.817,0,0,0,11.789,4.787,16.811,16.811,0,0,0,11.788-4.786,16.8,16.8,0,0,0,5.1-11.613c.005.187.007.344.007.5a16.784,16.784,0,0,1-4.946,11.951A16.783,16.783,0,0,1-400.5-454.375Zm-21.5-17.4h0v-.013c0-.167,0-.326,0-.487a21.365,21.365,0,0,1,1.69-8.368,21.427,21.427,0,0,1,4.607-6.834,21.428,21.428,0,0,1,6.834-4.607,21.365,21.365,0,0,1,8.368-1.69,21.382,21.382,0,0,1,8.366,1.694,21.444,21.444,0,0,1,6.832,4.608,21.442,21.442,0,0,1,4.608,6.832A21.379,21.379,0,0,1-379-472.275c0,.15,0,.306,0,.464a21.4,21.4,0,0,0-6.459-14.823,21.4,21.4,0,0,0-15.035-6.141,21.378,21.378,0,0,0-15.037,6.134A21.375,21.375,0,0,0-421.994-471.775Z" transform="translate(421.999 493.776)" fill="#b2b2b2"/>
        </g>
        <g id="Group_1109" data-name="Group 1109">
          <path id="N_A" data-name="N/A" d="M9.765-10.157V0H8.68a.951.951,0,0,1-.413-.08,1,1,0,0,1-.329-.276L2.877-6.8q.021.245.031.483t.01.441V0H1.064V-10.157H2.17a2.1,2.1,0,0,1,.227.01.5.5,0,0,1,.171.049.664.664,0,0,1,.147.1,1.429,1.429,0,0,1,.154.168l5.1,6.468q-.028-.266-.042-.515T7.91-4.347v-5.81Zm3.3,11.13c-.089.233-.582.392-.775.511a1.118,1.118,0,0,1-.591.178h-.475L15.253-9.772a1,1,0,0,1,.378-.49,1.038,1.038,0,0,1,.6-.175l1.178.018ZM23.534-2.8l-1.61-4.165q-.1-.245-.206-.574t-.207-.714q-.1.392-.206.725t-.207.578L19.488-2.8ZM26.515.973H25.274a.718.718,0,0,1-.444-.13.784.784,0,0,1-.255-.332L23.534-2.4H19.488L18.439.511a.8.8,0,0,1-.245.319.673.673,0,0,1-.441.143H16.471l3.969-11.13h2.149Z" transform="translate(7.936 25.437)" fill="#b2b2b2"/>
          <path id="N_A-2" data-name="N/A" d="M9.765-10.157V0H8.68a.951.951,0,0,1-.413-.08,1,1,0,0,1-.329-.276L2.877-6.8q.021.245.031.483t.01.441V0H1.064V-10.157H2.17a2.1,2.1,0,0,1,.227.01.5.5,0,0,1,.171.049.664.664,0,0,1,.147.1,1.429,1.429,0,0,1,.154.168l5.1,6.468q-.028-.266-.042-.515T7.91-4.347v-5.81ZM13.048-.028A1.025,1.025,0,0,1,12.625.5a1.118,1.118,0,0,1-.591.178h-.819L15.253-9.772a1,1,0,0,1,.378-.49,1.038,1.038,0,0,1,.6-.175h.826Zm9.975-3.829-1.1-3.108q-.1-.245-.206-.574t-.207-.714q-.1.392-.206.725t-.207.578L20.006-3.857ZM26.551,0H24.92a.718.718,0,0,1-.444-.13.784.784,0,0,1-.255-.333L23.534-2.4H19.488L18.8-.462a.8.8,0,0,1-.245.319A.673.673,0,0,1,18.116,0H16.471L20.44-10.157h2.149Z" transform="translate(7.936 26.437)" fill="#d1d1d1"/>
        </g>
      </g>
    </g>
  </g>
</svg>
